<svg xmlns="http://www.w3.org/2000/svg" viewBox="0 0 256 256" width="256" height="256">
  <!--
    carpet — ковролин (.55, тёплый): база T2, ворс-точки N4/N6,
    разреженный крап с джиттером, без узора. Точки не ближе 4px к краям.
  -->
  <rect x="0" y="0" width="256" height="256" fill="#B08668"/>

  <!-- Ворс: светлые точки -->
  <g fill="#C9A183">
    <circle cx="20" cy="24" r="2.4"/>
    <circle cx="66" cy="14" r="2"/>
    <circle cx="118" cy="30" r="2.4"/>
    <circle cx="170" cy="18" r="2"/>
    <circle cx="222" cy="28" r="2.4"/>
    <circle cx="40" cy="70" r="2"/>
    <circle cx="96" cy="62" r="2.4"/>
    <circle cx="150" cy="74" r="2"/>
    <circle cx="204" cy="64" r="2.4"/>
    <circle cx="242" cy="78" r="2"/>
    <circle cx="24" cy="126" r="2.4"/>
    <circle cx="80" cy="118" r="2"/>
    <circle cx="134" cy="130" r="2.4"/>
    <circle cx="188" cy="120" r="2"/>
    <circle cx="236" cy="132" r="2.4"/>
    <circle cx="52" cy="178" r="2"/>
    <circle cx="108" cy="186" r="2.4"/>
    <circle cx="162" cy="174" r="2"/>
    <circle cx="216" cy="184" r="2.4"/>
    <circle cx="30" cy="228" r="2.4"/>
    <circle cx="88" cy="238" r="2"/>
    <circle cx="142" cy="226" r="2.4"/>
    <circle cx="196" cy="236" r="2"/>
    <circle cx="240" cy="224" r="2.4"/>
  </g>

  <!-- Ворс: тёмные точки (реже) -->
  <g fill="#9C8A76">
    <circle cx="44" cy="40" r="2.2"/>
    <circle cx="144" cy="46" r="2.2"/>
    <circle cx="70" cy="94" r="2.2"/>
    <circle cx="218" cy="102" r="2.2"/>
    <circle cx="60" cy="150" r="2.2"/>
    <circle cx="206" cy="154" r="2.2"/>
    <circle cx="116" cy="210" r="2.2"/>
    <circle cx="224" cy="246" r="2.2"/>
  </g>
</svg>
